<svg height="512" viewBox="0 0 512 512" width="512" xmlns="http://www.w3.org/2000/svg"><g id="Two_Tone" data-name="Two Tone"><path d="m72 456h368v32h-368z" fill="#1a76d2"/><path d="m144 24h224v128h-224z" fill="#bbdefb"/><path d="m456 456h-400v-233l16-71h368l16 71z" fill="#2096f3"/><circle cx="256" cy="304" fill="#ffecb3" r="120"/><circle cx="112" cy="200" fill="#ffc108" r="16"/><g fill="#0d47a0"><path d="m463.8 221.241-16-71a8 8 0 0 0 -7.8-6.241h-64v-120a8 8 0 0 0 -8-8h-224a8 8 0 0 0 -8 8v120h-64a8 8 0 0 0 -7.8 6.241l-16 71a7.944 7.944 0 0 0 -.2 1.759v233a8 8 0 0 0 8 8h8v24a8 8 0 0 0 8 8h368a8 8 0 0 0 8-8v-24h8a8 8 0 0 0 8-8v-233a7.944 7.944 0 0 0 -.2-1.759zm-311.8-189.241h208v112h-208zm280 448h-352v-16h352zm16-32h-384v-224.11l14.4-63.89h355.2l14.4 63.89z"/><path d="m256 176a128 128 0 1 0 128 128 128.144 128.144 0 0 0 -128-128zm62.766 220.714-7.838-13.575-13.856 8 7.85 13.6a111.156 111.156 0 0 1 -40.922 10.972v-15.711h-16v15.711a111.156 111.156 0 0 1 -40.922-10.976l7.85-13.6-13.856-8-7.838 13.575a112.911 112.911 0 0 1 -29.948-29.948l13.575-7.838-8-13.856-13.6 7.85a111.156 111.156 0 0 1 -10.972-40.918h15.711v-16h-15.711a111.156 111.156 0 0 1 10.976-40.922l13.6 7.85 8-13.856-13.575-7.838a112.911 112.911 0 0 1 29.948-29.948l7.838 13.575 13.856-8-7.85-13.6a111.156 111.156 0 0 1 40.918-10.972v15.711h16v-15.711a111.156 111.156 0 0 1 40.922 10.976l-7.85 13.6 13.856 8 7.838-13.575a112.911 112.911 0 0 1 29.948 29.948l-13.575 7.838 8 13.856 13.6-7.85a111.156 111.156 0 0 1 10.972 40.918h-15.711v16h15.711a111.156 111.156 0 0 1 -10.976 40.922l-13.6-7.85-8 13.856 13.575 7.838a112.911 112.911 0 0 1 -29.944 29.948z"/><path d="m248 299.5-52.054 30.6 8.108 13.792 56-32.919a8 8 0 0 0 3.946-6.9v-80.073h-16z"/><path d="m136 200a24 24 0 1 0 -24 24 24.027 24.027 0 0 0 24-24zm-24 8a8 8 0 1 1 8-8 8.009 8.009 0 0 1 -8 8z"/><path d="m184 80h32v16h-32z"/><path d="m184 112h32v16h-32z"/><path d="m240 80h88v16h-88z"/><path d="m184 48h32v16h-32z"/><path d="m240 48h88v16h-88z"/><path d="m240 112h88v16h-88z"/></g></g></svg>