<?xml version="1.0" encoding="iso-8859-1"?>
<!-- Generator: Adobe Illustrator 19.0.0, SVG Export Plug-In . SVG Version: 6.00 Build 0)  -->
<svg version="1.1" id="Layer_1" xmlns="http://www.w3.org/2000/svg" xmlns:xlink="http://www.w3.org/1999/xlink" x="0px" y="0px"
	 viewBox="0 0 472.616 472.616" style="enable-background:new 0 0 472.616 472.616;" xml:space="preserve">
<g>
	<g>
		<path d="M446.112,303.961c-35.337-35.339-92.631-35.339-127.968,0c-35.338,35.336-35.338,92.63,0,127.966
			c35.337,35.34,92.631,35.34,127.968,0C481.45,396.59,481.45,339.297,446.112,303.961z M365.062,416.004l-41.097-41.097
			l13.923-13.922l27.173,27.172l61.307-61.307l13.923,13.922L365.062,416.004z"/>
	</g>
</g>
<g>
	<g>
		<circle cx="207.853" cy="112.292" r="98.107"/>
	</g>
</g>
<g>
	<g>
		<path d="M363.011,259.504c-11.39-12.786-24.222-24.259-38.427-33.916c-1.547-1.053-4.66-3.074-4.66-3.074
			c-25.079,34.82-65.966,57.529-112.06,57.529c-46.1,0-86.99-22.714-112.069-57.539c0,0-2.615,1.709-3.916,2.587
			C36.456,262.422,0,325.758,0,397.61v21.795h284.713c-21.95-41.606-15.453-94.406,19.512-129.373
			C320.449,273.809,340.863,263.359,363.011,259.504z"/>
	</g>
</g>
<g>
</g>
<g>
</g>
<g>
</g>
<g>
</g>
<g>
</g>
<g>
</g>
<g>
</g>
<g>
</g>
<g>
</g>
<g>
</g>
<g>
</g>
<g>
</g>
<g>
</g>
<g>
</g>
<g>
</g>
</svg>
