<svg id="Capa_1" enable-background="new 0 0 501 501" height="512" viewBox="0 0 501 501" width="512" xmlns="http://www.w3.org/2000/svg"><g><path d="m183.927 491.842c-103.067-29.034-178.585-123.809-178.427-236.197.19-134.924 110.577-244.915 245.501-244.645 135.08.271 244.499 109.856 244.499 244.997 0 11.364-.774 22.547-2.271 33.5h-91.589c-85.104 0-154.094 68.99-154.094 154.093 0 33.178-31.683 57.248-63.619 48.252z" fill="#99302b"/><path d="m424.5 389.996h-350c-5.523 0-10-4.477-10-10v-289.997c0-5.523 4.477-10 10-10h350c5.523 0 10 4.477 10 10v289.997c0 5.523-4.477 10-10 10z" fill="#bbe0fb"/><path d="m424.5 389.996h-320c-5.523 0-10-4.477-10-10v-289.997c0-5.523 4.477-10 10-10h320c5.523 0 10 4.477 10 10v289.997c0 5.523-4.477 10-10 10z" fill="#e3f0fb"/><path d="m434.5 89.999h-370v-54.999c0-8.284 6.716-15 15-15h340c8.284 0 15 6.716 15 15z" fill="#2740af"/><path d="m434.5 89.999h-340v-54.999c0-8.284 6.716-15 15-15h310c8.284 0 15 6.716 15 15z" fill="#4f66cf"/><path d="m159.5 10v40c0 5.523-4.477 10-10 10s-10-4.477-10-10v-40c0-5.523 4.477-10 10-10s10 4.477 10 10zm-60-10c-5.523 0-10 4.477-10 10v40c0 5.523 4.477 10 10 10s10-4.477 10-10v-40c0-5.523-4.477-10-10-10zm150 0c-5.523 0-10 4.477-10 10v40c0 5.523 4.477 10 10 10s10-4.477 10-10v-40c0-5.523-4.477-10-10-10zm-50 0c-5.523 0-10 4.477-10 10v40c0 5.523 4.477 10 10 10s10-4.477 10-10v-40c0-5.523-4.477-10-10-10zm100 0c-5.523 0-10 4.477-10 10v40c0 5.523 4.477 10 10 10s10-4.477 10-10v-40c0-5.523-4.477-10-10-10zm100 0c-5.523 0-10 4.477-10 10v40c0 5.523 4.477 10 10 10s10-4.477 10-10v-40c0-5.523-4.477-10-10-10zm-50 0c-5.523 0-10 4.477-10 10v40c0 5.523 4.477 10 10 10s10-4.477 10-10v-40c0-5.523-4.477-10-10-10z" fill="#f1ca50"/><path d="m109.5 10v20c0 5.523-4.477 10-10 10s-10-4.477-10-10v-20c0-5.523 4.477-10 10-10s10 4.477 10 10zm90-10c-5.523 0-10 4.477-10 10v20c0 5.523 4.477 10 10 10s10-4.477 10-10v-20c0-5.523-4.477-10-10-10zm-50 0c-5.523 0-10 4.477-10 10v20c0 5.523 4.477 10 10 10s10-4.477 10-10v-20c0-5.523-4.477-10-10-10zm150 0c-5.523 0-10 4.477-10 10v20c0 5.523 4.477 10 10 10s10-4.477 10-10v-20c0-5.523-4.477-10-10-10zm100 0c-5.523 0-10 4.477-10 10v20c0 5.523 4.477 10 10 10s10-4.477 10-10v-20c0-5.523-4.477-10-10-10zm-50 0c-5.523 0-10 4.477-10 10v20c0 5.523 4.477 10 10 10s10-4.477 10-10v-20c0-5.523-4.477-10-10-10zm-100 0c-5.523 0-10 4.477-10 10v20c0 5.523 4.477 10 10 10s10-4.477 10-10v-20c0-5.523-4.477-10-10-10z" fill="#fdf061"/><path d="m269.5 124.999v30c0 2.761-2.239 5-5 5h-30c-2.761 0-5-2.238-5-5v-30c0-2.761 2.239-5 5-5h30c2.761 0 5 2.238 5 5zm65-5h-30c-2.761 0-5 2.239-5 5v30c0 2.761 2.239 5 5 5h30c2.761 0 5-2.238 5-5v-30c0-2.762-2.239-5-5-5zm70 0h-30c-2.761 0-5 2.239-5 5v30c0 2.761 2.239 5 5 5h30c2.761 0 5-2.238 5-5v-30c0-2.762-2.239-5-5-5zm-280 66.666h-30c-2.761 0-5 2.239-5 5v30c0 2.761 2.239 5 5 5h30c2.761 0 5-2.238 5-5v-30c0-2.762-2.239-5-5-5z" fill="#73d37a"/><path d="m129.5 124.999v30c0 2.761-2.239 5-5 5h-30c-2.761 0-5-2.238-5-5v-30c0-2.761 2.239-5 5-5h30c2.761 0 5 2.238 5 5zm65-5h-30c-2.761 0-5 2.239-5 5v30c0 2.761 2.239 5 5 5h30c2.761 0 5-2.238 5-5v-30c0-2.762-2.239-5-5-5zm0 66.666h-30c-2.761 0-5 2.239-5 5v30c0 2.761 2.239 5 5 5h30c2.761 0 5-2.238 5-5v-30c0-2.762-2.239-5-5-5zm70 0h-30c-2.761 0-5 2.239-5 5v30c0 2.761 2.239 5 5 5h30c2.761 0 5-2.238 5-5v-30c0-2.762-2.239-5-5-5zm70 0h-30c-2.761 0-5 2.239-5 5v30c0 2.761 2.239 5 5 5h30c2.761 0 5-2.238 5-5v-30c0-2.762-2.239-5-5-5zm70 0h-30c-2.761 0-5 2.239-5 5v30c0 2.761 2.239 5 5 5h30c2.761 0 5-2.238 5-5v-30c0-2.762-2.239-5-5-5zm-280 66.666h-30c-2.761 0-5 2.239-5 5v30c0 2.761 2.239 5 5 5h30c2.761 0 5-2.238 5-5v-30c0-2.762-2.239-5-5-5zm70 0h-30c-2.761 0-5 2.239-5 5v30c0 2.761 2.239 5 5 5h30c2.761 0 5-2.238 5-5v-30c0-2.762-2.239-5-5-5z" fill="#acd1fd"/><path d="m362.316 213.498h-52.874c-16.399 0-29.741 13.342-29.741 29.741v26.436c0 16.4 13.342 29.741 29.741 29.741h52.874c16.399 0 29.741-13.342 29.741-29.741v-26.436c0-16.4-13.342-29.741-29.741-29.741zm9.914 56.177c0 5.467-4.447 9.914-9.914 9.914h-52.874c-5.467 0-9.914-4.447-9.914-9.914v-26.436c0-5.467 4.447-9.914 9.914-9.914h52.874c5.467 0 9.914 4.447 9.914 9.914z" fill="#3f4a4a"/><path d="m247.546 283.066v197.929c0 9.3-6.348 17.117-14.947 19.356-18.253-1.318-35.952-4.636-52.879-9.735-1.569-2.854-2.462-6.133-2.462-9.621v-197.929c0-11.046 8.954-20 20-20h30.287c11.047 0 20.001 8.954 20.001 20z" fill="#f19b0b"/><path d="m494.31 280.299c-5.685 57.737-31.414 109.588-70.133 148.501-.33.331-.791.509-1.258.492-1.076-.039-1.77-.112-1.912-.223-2.629-2.056-5.939-3.282-9.536-3.282h-1.173c-8.555 0-15.491 6.936-15.491 15.491v9.443c0 2.063-.984 4.011-2.667 5.205-32.544 23.097-70.971 38.448-112.594 43.364-1.066-7.516-7.526-13.296-15.337-13.296h-1.173c-8.385 0-15.214 6.662-15.483 14.982-8.564-.101-17.022-.641-25.353-1.599v-236.311h252.3c10.107 0 18.462 7.497 19.81 17.233z" fill="#f5c02c"/><path d="m424.213 263.066v165.698c-9.907 9.96-20.665 19.074-32.155 27.222v-192.92zm-176.667 237.929c.983.012 1.968 0 2.954 0 9.881 0 19.626-.585 29.201-1.722v-236.207h-32.155z" fill="#ef5300"/><path d="m247.546 396.217v-133.151h32.155v133.151c0 8.879-7.198 16.077-16.078 16.077s-16.077-7.198-16.077-16.077zm144.511.019c.01 8.871 7.204 16.059 16.078 16.059 8.879 0 16.078-7.198 16.078-16.077v-133.152h-32.155v133.17z" fill="#f57e00"/></g></svg>