<?xml version="1.0" encoding="iso-8859-1"?>
<!-- Generator: Adobe Illustrator 19.0.0, SVG Export Plug-In . SVG Version: 6.00 Build 0)  -->
<svg version="1.1" id="Capa_1" xmlns="http://www.w3.org/2000/svg" xmlns:xlink="http://www.w3.org/1999/xlink" x="0px" y="0px"
	 viewBox="0 0 496 496" style="enable-background:new 0 0 496 496;" xml:space="preserve">
<polygon style="fill:#FFF7E2;" points="326.24,264 360,311.456 360,448 136,448 136,311.456 169.76,264 "/>
<g>
	<path style="fill:#FB9700;" d="M408,48H88c-4.416,0-8-3.584-8-8V8c0-4.416,3.584-8,8-8h320c4.416,0,8,3.584,8,8v32
		C416,44.416,412.416,48,408,48z"/>
	<path style="fill:#FB9700;" d="M408,496H88c-4.416,0-8-3.584-8-8v-32c0-4.416,3.584-8,8-8h320c4.416,0,8,3.584,8,8v32
		C416,492.416,412.416,496,408,496z"/>
</g>
<polygon style="fill:#FFF7E2;" points="326.24,232 360,184.544 360,48 136,48 136,184.544 169.76,232 "/>
<g>
	<path style="fill:#FDCD3B;" d="M176,168h-16V80c0-4.424,3.584-8,8-8h56v16h-48V168z"/>
	<path style="fill:#FDCD3B;" d="M336,168h-16V88h-48V72h56c4.416,0,8,3.576,8,8V168z"/>
	<rect x="240" y="72" style="fill:#FDCD3B;" width="16" height="16"/>
	<path style="fill:#FDCD3B;" d="M224,424h-56c-4.416,0-8-3.576-8-8v-88h16v80h48V424z"/>
	<path style="fill:#FDCD3B;" d="M328,424h-56v-16h48v-80h16v88C336,420.424,332.416,424,328,424z"/>
	<rect x="240" y="408" style="fill:#FDCD3B;" width="16" height="16"/>
</g>
<g>
	<rect x="96" y="72" style="fill:#FB9700;" width="16" height="144"/>
	<rect x="96" y="280" style="fill:#FB9700;" width="16" height="144"/>
	<rect x="96" y="232" style="fill:#FB9700;" width="16" height="32"/>
	<rect x="384" y="72" style="fill:#FB9700;" width="16" height="144"/>
	<rect x="384" y="280" style="fill:#FB9700;" width="16" height="144"/>
	<rect x="384" y="232" style="fill:#FB9700;" width="16" height="32"/>
</g>
<circle style="fill:#FDCD3B;" cx="248" cy="248" r="80"/>
<path style="fill:#FFF7E2;" d="M280,255.696c-0.024-4.272-1.712-8.28-4.76-11.288c-3.016-2.976-7-4.608-11.224-4.608
	c-0.04,0-0.08,0-0.12,0l-31.8,0.192L232,224.256L272.048,224l-0.104-16l-15.896,0.104l-0.048-8.16l-16,0.112l0.048,8.152
	l-8.144,0.056c-4.28,0.024-8.288,1.712-11.296,4.76c-3,3.04-4.64,7.072-4.616,11.344l0.104,15.736
	c0.024,4.28,1.712,8.288,4.76,11.288c3.016,2.976,7.008,4.608,11.232,4.608c0.04,0,0.08,0,0.12,0L264,255.792L264.104,272
	l-40.16,0.256l0.104,16l16-0.104l0.048,7.896l16-0.112l-0.048-7.896l8.16-0.04c8.816-0.064,15.944-7.28,15.888-16.096L280,255.696z"
	/>
<g>
	<rect x="200" y="360" style="fill:#FDCD3B;" width="16" height="32"/>
	<rect x="240" y="352" style="fill:#FDCD3B;" width="16" height="32"/>
	<rect x="280" y="360" style="fill:#FDCD3B;" width="16" height="32"/>
</g>
<rect x="200" y="104" style="fill:#FDCD3B;" width="16" height="32"/>
<rect x="280" y="104" style="fill:#FDCD3B;" width="16" height="32"/>
<rect x="240" y="112" style="fill:#FDCD3B;" width="16" height="32"/>
<g>
</g>
<g>
</g>
<g>
</g>
<g>
</g>
<g>
</g>
<g>
</g>
<g>
</g>
<g>
</g>
<g>
</g>
<g>
</g>
<g>
</g>
<g>
</g>
<g>
</g>
<g>
</g>
<g>
</g>
</svg>
