<svg id="Layer_1" enable-background="new 0 0 512 512" height="512" viewBox="0 0 512 512" width="512" xmlns="http://www.w3.org/2000/svg"><path d="m0 108.001v299.74c0 5.67 4.636 10.309 10.302 10.309h25.488l-4.118-7.99c-1.219-2.367-2.249-6.615-2.249-9.277v-241.423c0-5.133 4.173-9.309 9.302-9.309h38.988c5.129 0 9.302 4.176 9.302 9.309v241.422c0 2.662-1.03 6.91-2.25 9.277l-4.118 7.99h421.051c5.666 0 10.302-4.639 10.302-10.309v-299.74h-512z" fill="#c7eefd"/><path d="m30.783 410.516c-1.298-2.52-2.361-6.898-2.361-9.734v-241.422c0-5.67 4.636-10.309 10.302-10.309h2.998v-41.051h-41.722v299.74c0 5.67 4.636 10.309 10.302 10.309h24.363z" fill="#98e5fb"/><path d="m500.709 50.936h-489.418c-6.21 0-11.291 5.104-11.291 11.338v46.818h512v-46.818c0-6.234-5.08-11.338-11.291-11.338z" fill="#c4d2dc"/><path d="m11.291 50.936c-6.21 0-11.291 5.104-11.291 11.338v46.818h41.722v-24.806c-1.234 2.449-3.765 4.135-6.696 4.135-4.142 0-7.5-3.357-7.5-7.5s3.358-7.5 7.5-7.5c2.931 0 5.462 1.684 6.696 4.135v-15.282c0-6.234 5.081-11.338 11.291-11.338z" fill="#b5c3ce"/><circle cx="35.026" cy="80.92" fill="#fa2b3a" r="7.5"/><circle cx="59.751" cy="80.92" fill="#fa8701" r="7.5"/><circle cx="84.475" cy="80.92" fill="#00c184" r="7.5"/><circle cx="474.914" cy="80.92" fill="#596c76" r="7.5"/><path d="m470.277 242.444c0 46.625-38.029 84.424-84.944 84.424s-84.948-37.799-84.948-84.424c0-46.623 38.033-84.42 84.948-84.42s84.944 37.797 84.944 84.42z" fill="#fff"/><path d="m403.528 268.897c-5.4 2.965-11.602 4.656-18.195 4.656-6.594 0-12.796-1.691-18.197-4.656-17.983 5.158-32.788 17.762-40.823 34.234 15.284 14.685 36.083 23.736 59.021 23.736 22.936 0 43.736-9.051 59.019-23.736-8.037-16.472-22.842-29.076-40.825-34.234z" fill="#00c184"/><path d="m389.577 273.302c-1.395.156-2.808.251-4.244.251-6.594 0-12.796-1.691-18.197-4.656-17.983 5.158-32.788 17.762-40.823 34.234 5.155 4.953 10.95 9.247 17.231 12.787 9.661-19.142 26.022-34.363 46.033-42.616z" fill="#07b17b"/><ellipse cx="385.332" cy="236.02" fill="#98e5fb" rx="38.771" ry="38.533"/><path d="m369.213 236.02c0-17.352 11.544-32.023 27.415-36.85-3.574-1.084-7.362-1.684-11.295-1.684-21.413 0-38.773 17.254-38.773 38.533 0 21.283 17.359 38.533 38.773 38.533 3.933 0 7.72-.599 11.295-1.684-15.871-4.825-27.415-19.494-27.415-36.848z" fill="#01cffa"/><g fill="#07b17b"><path d="m261.945 180.985h-133.923c-4.142 0-7.5-3.357-7.5-7.5s3.358-7.5 7.5-7.5h133.923c4.143 0 7.5 3.357 7.5 7.5s-3.357 7.5-7.5 7.5z"/><path d="m261.945 216.274h-133.923c-4.142 0-7.5-3.357-7.5-7.5s3.358-7.5 7.5-7.5h133.923c4.143 0 7.5 3.357 7.5 7.5s-3.357 7.5-7.5 7.5z"/><path d="m261.945 251.565h-133.923c-4.142 0-7.5-3.357-7.5-7.5s3.358-7.5 7.5-7.5h133.923c4.143 0 7.5 3.357 7.5 7.5s-3.357 7.5-7.5 7.5z"/></g><path d="m261.945 301.094h-133.923c-4.142 0-7.5-3.358-7.5-7.5 0-4.143 3.358-7.5 7.5-7.5h133.923c4.143 0 7.5 3.357 7.5 7.5s-3.357 7.5-7.5 7.5z" fill="#0592fb"/><path d="m261.945 336.383h-133.923c-4.142 0-7.5-3.357-7.5-7.5s3.358-7.5 7.5-7.5h133.923c4.143 0 7.5 3.357 7.5 7.5s-3.357 7.5-7.5 7.5z" fill="#0592fb"/><path d="m261.945 371.674h-133.923c-4.142 0-7.5-3.357-7.5-7.5 0-4.142 3.358-7.5 7.5-7.5h133.923c4.143 0 7.5 3.358 7.5 7.5 0 4.143-3.357 7.5-7.5 7.5z" fill="#0592fb"/><path d="m452.294 371.674h-133.924c-4.143 0-7.5-3.357-7.5-7.5 0-4.142 3.357-7.5 7.5-7.5h133.924c4.143 0 7.5 3.358 7.5 7.5 0 4.143-3.358 7.5-7.5 7.5z" fill="#07b17b"/><path d="m88.014 191.913v-32.553c0-5.67-4.636-10.309-10.302-10.309h-38.987c-5.666 0-10.302 4.639-10.302 10.309v32.553z" fill="#fd646f"/><path d="m56.304 191.913v-32.553c0-5.67 4.636-10.309 10.302-10.309h-27.881c-5.666 0-10.302 4.639-10.302 10.309v32.553z" fill="#fc4755"/><path d="m39.237 426.922h37.962l8.454-16.406c1.298-2.52 2.361-6.898 2.361-9.734v-209.869h-59.592v209.869c0 2.836 1.063 7.215 2.361 9.734z" fill="#fdd1a3"/><path d="m60.579 459.174 17.135-33.252h-38.992l17.135 33.252c1.299 2.52 3.424 2.52 4.722 0z" fill="#3d5959"/><path d="m28.422 190.913h59.592v209.869h-59.592z" fill="#fda613"/><path d="m50.718 190.913h15v209.869h-15z" fill="#fa8701"/></svg>